<svg width="30" height="30" viewBox="0 0 30 30" fill="none" xmlns="http://www.w3.org/2000/svg">
<path fill-rule="evenodd" clip-rule="evenodd" d="M14.4248 2C14.0255 2 13.6514 2.1947 13.4238 2.51992L7.89781 10.4316H2.21968C1.83863 10.4316 1.48086 10.6069 1.24955 10.9068C1.02067 11.2055 0.942854 11.5935 1.04268 11.9561L4.15995 23.119C4.45213 24.1633 5.41235 24.8858 6.50681 24.8858H13.916C12.6291 23.4693 12.6627 21.2865 14.0396 19.9242C14.7299 19.2412 15.6467 18.8655 16.6219 18.8655C17.597 18.8655 18.5151 19.2412 19.2041 19.9242L20.9851 21.6863L25.2009 17.5152C25.5819 17.1382 26.0347 16.8653 26.5253 16.6871L27.7404 11.9561C27.8402 11.5935 27.7647 11.2055 27.5359 10.9068C27.3046 10.6069 26.9468 10.4316 26.5657 10.4316H20.8924L15.4306 2.52462C15.2042 2.19699 14.8301 2.0012 14.4296 2H14.4248ZM14.42 5.33123L17.9415 10.434H14.3915H10.8558L14.42 5.33123ZM26.9224 19.2184C27.1598 18.9836 27.4715 18.8655 27.7831 18.8655C28.0948 18.8655 28.4065 18.9836 28.6439 19.2184C29.1187 19.6882 29.1187 20.4519 28.6439 20.9217L21.8458 27.6477C21.371 28.1174 20.6003 28.1174 20.1243 27.6477L15.7611 23.3307C15.2863 22.861 15.2863 22.0972 15.7611 21.6275C16.2359 21.1577 17.0078 21.1577 17.4826 21.6275L20.9851 25.0928L26.9224 19.2184Z" fill="black"/>
</svg>
