<svg width="30" height="30" viewBox="0 0 30 30" fill="none" xmlns="http://www.w3.org/2000/svg">
<path fill-rule="evenodd" clip-rule="evenodd" d="M15 2C7.8201 2 2 7.8201 2 15C2 22.1799 7.8201 28 15 28C22.1799 28 28 22.1799 28 15C28 7.8201 22.1799 2 15 2ZM21.3908 7.89316C21.8647 7.8381 22.2725 8.33368 22.0484 8.81484L18.2475 16.9855C17.9888 17.5419 17.5419 17.9888 16.9855 18.2475L8.81484 22.0484C8.26494 22.3045 7.69546 21.7351 7.95156 21.1852L11.7525 13.0145C12.0112 12.4594 12.4581 12.0112 13.0145 11.7525L21.1852 7.95156C21.2539 7.91955 21.3231 7.90103 21.3908 7.89316ZM13.5705 15C13.5705 14.207 14.207 13.5705 15 13.5705C15.793 13.5705 16.4295 14.207 16.4295 15C16.4295 15.793 15.793 16.4295 15 16.4295C14.207 16.4295 13.5705 15.793 13.5705 15Z" fill="#00CB2C"/>
</svg>
