<svg width="25" height="24" viewBox="0 0 25 24" fill="none" xmlns="http://www.w3.org/2000/svg">
<path fill-rule="evenodd" clip-rule="evenodd" d="M10.2749 17.5991V12.6604L3.90812 5.3165C3.45735 4.79655 3.83623 4 4.53431 4H20.936C21.6341 4 22.0129 4.79655 21.5622 5.3165L15.1954 12.6604V19.199C15.1954 19.7937 14.5538 20.1805 14.0086 19.9145L10.7282 18.3146C10.4504 18.1791 10.2749 17.9021 10.2749 17.5991ZM13.5552 12.3675C13.5552 12.1783 13.6239 11.9953 13.7491 11.8509L19.1685 5.5999H6.30184L11.7212 11.8509C11.8464 11.9953 11.9151 12.1783 11.9151 12.3675V17.1047L13.5552 17.9047V12.3675Z" fill="white"/>
</svg>
