<svg width="19" height="20" viewBox="0 0 19 20" fill="none" xmlns="http://www.w3.org/2000/svg">
<path fill-rule="evenodd" clip-rule="evenodd" d="M18.8161 9.81819C18.8161 9.13746 18.755 8.48292 18.6416 7.85455H9.6001V11.568H14.7666C14.5441 12.768 13.8677 13.7847 12.851 14.4655V16.8742H15.9536C17.7688 15.2029 18.8161 12.7418 18.8161 9.81819Z" fill="#4285F4"/>
<path fill-rule="evenodd" clip-rule="evenodd" d="M9.59991 19.2C12.1919 19.2 14.365 18.3404 15.9534 16.8742L12.8508 14.4655C11.9912 15.0415 10.8915 15.3818 9.59991 15.3818C7.09954 15.3818 4.98318 13.6931 4.22827 11.424H1.021V13.9113C2.60063 17.0487 5.84718 19.2 9.59991 19.2Z" fill="#34A853"/>
<path fill-rule="evenodd" clip-rule="evenodd" d="M4.22836 11.424C4.03636 10.848 3.92727 10.2328 3.92727 9.60003C3.92727 8.9673 4.03636 8.35203 4.22836 7.77603V5.28876H1.02109C0.370909 6.58476 0 8.05094 0 9.60003C0 11.1491 0.370909 12.6153 1.02109 13.9113L4.22836 11.424Z" fill="#FBBC05"/>
<path fill-rule="evenodd" clip-rule="evenodd" d="M9.59991 3.81818C11.0094 3.81818 12.2748 4.30255 13.2697 5.25382L16.0232 2.50036C14.3606 0.951273 12.1875 0 9.59991 0C5.84718 0 2.60063 2.15127 1.021 5.28873L4.22827 7.776C4.98318 5.50691 7.09954 3.81818 9.59991 3.81818Z" fill="#EA4335"/>
</svg>
