<svg width="24" height="24" viewBox="0 0 24 24" fill="none" xmlns="http://www.w3.org/2000/svg">
<path fill-rule="evenodd" clip-rule="evenodd" d="M17.4287 16.1559C18.5372 14.7702 19.2 13.0125 19.2 11.1C19.2 6.62649 15.5735 3 11.1 3C6.62649 3 3 6.62649 3 11.1C3 15.5735 6.62649 19.2 11.1 19.2C13.0125 19.2 14.7702 18.5372 16.1559 17.4287L19.4636 20.7364C19.8151 21.0879 20.3849 21.0879 20.7364 20.7364C21.0879 20.3849 21.0879 19.8151 20.7364 19.4636L17.4287 16.1559ZM15.6372 15.4707C16.7288 14.3379 17.4 12.7973 17.4 11.1C17.4 7.62061 14.5794 4.8 11.1 4.8C7.62061 4.8 4.8 7.62061 4.8 11.1C4.8 14.5794 7.62061 17.4 11.1 17.4C12.7973 17.4 14.3379 16.7288 15.4707 15.6372C15.4944 15.6064 15.5204 15.5768 15.5486 15.5486C15.5768 15.5204 15.6064 15.4944 15.6372 15.4707Z" fill="white"/>
</svg>
