<svg width="30" height="30" viewBox="0 0 30 30" fill="none" xmlns="http://www.w3.org/2000/svg">
<path fill-rule="evenodd" clip-rule="evenodd" d="M15.0005 2C7.05129 2 0.74271 9.16945 2.21425 17.3783C3.13852 22.5356 7.24275 26.7029 12.3854 27.7227C14.2898 28.1007 16.1382 28.0528 17.8594 27.6643C18.4625 27.5266 18.9003 27.0027 18.9003 26.383V24.5004C18.9003 23.8924 18.3134 23.4735 17.735 23.658C16.7925 23.9594 15.7842 24.1104 14.7364 24.0792C9.91102 23.9376 5.90473 19.8244 5.90083 15.0009C5.89563 9.98257 9.98008 5.89722 15.0005 5.89722C15.6505 5.89722 15.9269 5.45024 16.0465 5.14366C16.3182 4.44346 16.7074 3.56886 17.217 2.82968C17.3925 2.57506 17.2419 2.21812 16.9377 2.16746C16.3046 2.06483 15.6609 2 15.0005 2ZM22.8002 2C21.8246 2 21.0068 2.48376 20.3882 3.06818C19.7695 3.65261 19.2906 4.36993 18.8902 5.13859C18.0894 6.67589 17.6004 8.3672 17.6004 9.79445C17.6004 12.1982 19.2698 14.2186 21.5002 14.803V26.6824C21.4936 27.1509 21.7399 27.5867 22.1449 27.8229C22.5498 28.059 23.0506 28.059 23.4555 27.8229C23.8605 27.5867 24.1068 27.1509 24.1001 26.6824V14.803C26.3306 14.2186 28 12.1982 28 9.79445C28 8.3672 27.511 6.67589 26.7102 5.13859C26.3098 4.36993 25.8309 3.65261 25.2122 3.06818C24.5936 2.48376 23.7758 2 22.8002 2ZM13.9824 8.57403C14.0656 8.56104 14.1698 8.55566 14.282 8.56642C14.6183 8.59869 15.0106 8.78663 15.0106 9.43162C15.0106 9.49498 15.008 9.55744 15.0054 9.61889C15.0029 9.67838 15.0005 9.73693 15.0005 9.79445C15.0005 12.3354 16.2402 14.6476 18.2148 16.0818C18.6659 16.4091 18.9003 16.9593 18.9003 17.5153V19.2229C18.9003 19.8464 18.5629 20.4275 18.0117 20.7224C16.7261 21.4122 15.1911 21.6913 13.5584 21.3263C11.1054 20.7781 9.12544 18.7859 8.63276 16.3228C7.87229 12.5191 10.4634 9.13003 13.9824 8.57403Z" fill="black"/>
</svg>
