<svg width="30" height="30" viewBox="0 0 30 30" fill="none" xmlns="http://www.w3.org/2000/svg">
<path fill-rule="evenodd" clip-rule="evenodd" d="M15 2C7.8201 2 2 7.8201 2 15C2 22.1799 7.8201 28 15 28C22.1799 28 28 22.1799 28 15C28 7.8201 22.1799 2 15 2ZM15 5.575C17.3335 5.575 19.225 7.4665 19.225 9.8C19.225 12.1335 17.3335 14.025 15 14.025C12.6665 14.025 10.775 12.1335 10.775 9.8C10.775 7.4665 12.6665 5.575 15 5.575ZM15 25.4C18.1694 25.4 21.0073 23.9817 22.9157 21.7444C23.411 21.1646 23.3005 20.291 22.6908 19.8321C20.7174 18.3488 17.1242 17.6 15 17.6C12.8758 17.6 9.2826 18.3488 7.3105 19.8321C6.7008 20.291 6.5903 21.1633 7.0856 21.7444C8.9927 23.9817 11.8306 25.4 15 25.4Z" fill="black"/>
</svg>
